PathFileType	4	(X/Y/Z)	pose_F01_0-77.trc
DataRate	CameraRate	NumFrames	NumMarkers	Units	OrigDataRate	OrigDataStartFrame	OrigNumFrames
30	30	6	21	m	30	64	77
Frame#	Time	CHip			RHip			RKnee			RAnkle			RBigToe			RSmallToe			RHeel			LHip			LKnee			LAnkle			LBigToe			LSmallToe			LHeel			Neck			Nose			RShoulder			RElbow			RWrist			LShoulder			LElbow			LWrist			
		X1	Y1	Z1	X2	Y2	Z2	X3	Y3	Z3	X4	Y4	Z4	X5	Y5	Z5	X6	Y6	Z6	X7	Y7	Z7	X8	Y8	Z8	X9	Y9	Z9	X10	Y10	Z10	X11	Y11	Z11	X12	Y12	Z12	X13	Y13	Z13	X14	Y14	Z14	X15	Y15	Z15	X16	Y16	Z16	X17	Y17	Z17	X18	Y18	Z18	X19	Y19	Z19	X20	Y20	Z20	X21	Y21	Z21	
64	2.1333333333333333	-0.2762896440961381	1.8881805167040862	-0.49044615725824414	-0.2882735424996948	1.8818016413376812	-0.41887461527088554	-0.26366492152269644	1.7400175422398083	-0.5016146877910277													-0.25978293279439907	1.8918651564772329	-0.552184802393241	-0.24048262871430734	1.7285862198462345	-0.5605429846619004	-0.22118123511962703	1.5861210751067718	-0.5625544795735116	-0.22234086696791358	1.55385351017447	-0.6361012691402687	-0.2123800625773457	1.5625684430849278	-0.6427441045400665	-0.22173718015707217	1.569803668496062	-0.5296949563522771	-0.27666068466596794	2.0633095420330365	-0.4677993781069208	-0.28791061886623226	2.1364376710345945	-0.5443402374123373	-0.3042249845690697	2.057953544049865	-0.38555957529701945	-0.30368402295487784	1.9766288069970985	-0.2334040428215809	-0.3041198530480195	1.9083716105691706	-0.2953428382886699	-0.25047298182641003	2.0669221763395567	-0.5542509268505362	-1.5778693978367047	1.8850147328062363	0.8940300590293104	-0.20972694444967846	1.9470782104487427	-0.6187983899833104
65	2.1666666666666665	-0.27429956404370276	1.8851719482356424	-0.4924384161761401	-0.28941063763360403	1.877323592263456	-0.42160328861354907	-0.26366492152269644	1.7400175422398083	-0.5016146877910277													-0.2578104490440495	1.889857655297039	-0.554414085239029	-0.24298143763493216	1.7289577743878526	-0.557959522300014	-0.22118787851270805	1.5859207437948184	-0.5624990395688714	-0.22235409687722918	1.5536358705619258	-0.6359990050087898	-0.21447980604646288	1.5622020306462456	-0.6405246137731316	-0.22207626803852568	1.568886463067417	-0.5291846112153995	-0.2756542458161854	2.061144480458848	-0.471883277504583	-0.2879811794214562	2.1352731133911464	-0.5446187549664324	-0.30223089363674177	2.0565795408987655	-0.3863609113460742	-0.3021335839922935	1.9755776075301112	-0.23544291947888435	-0.30519180484704245	1.9082121459902979	-0.2986821824527202	-0.2484658036674741	2.0660060487230045	-0.5558900224831643	-1.5778693978367047	1.8850147328062363	0.8940300590293104	-0.20972694444967846	1.9470782104487427	-0.6187983899833104
66	2.2	-0.27225214475128245	1.888391243386243	-0.49485778452158097	-0.28627878792424605	1.8816944412901149	-0.42116522258147654	-0.26366492152269644	1.7400175422398083	-0.5016146877910277													-0.2576273250432912	1.8915201918879714	-0.5544879879539029	-0.2407215573169379	1.7278399833944431	-0.5601352132969079	-0.22148693014865534	1.5847751983381777	-0.5619335761014312	-0.22238021191455576	1.5539587663142238	-0.6360272637200285	-0.21424460134877027	1.5638354488087027	-0.6411753209177917	-0.22241535591997919	1.567969257638772	-0.5286742660785219	-0.27668346635252183	2.0624993638657383	-0.47562976755298947	-0.2869252767666565	2.136459594468163	-0.549411464486237	-0.3032728470203165	2.0580685015200895	-0.39009249004026525	-0.30039962515453933	1.9769196214376517	-0.2381481101275755	-0.30042949003235053	1.9097233475536173	-0.2997809824427619	-0.24851097681641102	2.0672013553551616	-0.5564764663876606	-1.5778693978367047	1.8850147328062363	0.8940300590293104	-0.20972694444967846	1.9470782104487427	-0.6187983899833104
67	2.2333333333333334	-0.27528911890115754	1.8891256874352955	-0.4962307193310436	-0.2874895930080073	1.8834336222412784	-0.4245491315676171	-0.26366492152269644	1.7400175422398083	-0.5016146877910277													-0.2575873802323647	1.8939081076768292	-0.5549171410795765	-0.2408785711852739	1.7319946740991934	-0.5604722168307649	-0.22151080681886828	1.5850820900925973	-0.562018527113316	-0.22457433735031646	1.553916451008674	-0.6339576610483482	-0.21426328554160054	1.5638437905825715	-0.6412118429401701	-0.2224531880655969	1.5681491485661436	-0.5286845516162872	-0.2757730187557988	2.062744175824715	-0.48091850817973947	-0.2869522903843211	2.1364470480930886	-0.5495435346922944	-0.3014731101723967	2.058141685617085	-0.39218581908156497	-0.2986276747774311	1.9771144743930746	-0.24022532575603628	-0.2985507796732531	1.908008904855505	-0.30138309721969614	-0.24735638730104115	2.0663664272538385	-0.5611400240044192	-1.5778693978367047	1.8850147328062363	0.8940300590293104	-0.20972694444967846	1.9470782104487427	-0.6187983899833104
68	2.2666666666666666	-0.2714641721473519	1.8868234669088573	-0.5002078947291043	-0.2854396593355438	1.8821664816076316	-0.42654806181811905	-0.26366492152269644	1.7400175422398083	-0.5016146877910277													-0.25649637692952604	1.8912057310932975	-0.559855073236483	-0.2387542285373875	1.7291494439456956	-0.5622039545813289	-0.22161630566783436	1.5857450428595443	-0.5619192397392727	-0.22158182869939644	1.5521688387507468	-0.6323691113391859	-0.21230495550966286	1.562292973095024	-0.6426494502608806	-0.22249102021121464	1.5683290394935152	-0.5286948371540525	-0.27492400898113495	2.0629248668820837	-0.4861879546485398	-0.28792039742150655	2.1353948066490616	-0.5526034919072196	-0.3024610786417116	2.058380408745752	-0.395381705668469	-0.2985823079709826	1.9795845480142906	-0.2408345935927985	-0.29737604962699693	1.9082099187491055	-0.2982634999599368	-0.2491994447204233	2.066687836792303	-0.5674115443475577	-1.5778693978367047	1.8850147328062363	0.8940300590293104	-0.20972694444967846	1.9470782104487427	-0.6187983899833104
69	2.3	-0.2712613148909647	1.8885139168814735	-0.5002933526001238	-0.2852346244245773	1.8833505656151612	-0.4265635230406341	-0.26366492152269644	1.7400175422398083	-0.5016146877910277													-0.25429220619392656	1.8925422656137234	-0.5621345280450412	-0.2426724461917017	1.7304110208999457	-0.5581575698460804	-0.22162601156699197	1.5858635334637745	-0.5619483299934873	-0.22254818809242743	1.5523650313334953	-0.6355470882337184	-0.21240293680740527	1.5627611649276902	-0.6428023852714606	-0.22149290060123333	1.5684397044435343	-0.529741700509216	-0.2749577158806005	2.0641226506687187	-0.48678331654760887	-0.2869758911106329	2.1351940078804743	-0.5497697305727568	-0.30249540183899704	2.0597238985331825	-0.39600123753988997	-0.2996589035902191	1.9782763370202878	-0.24346242313615887	-0.2954666113172681	1.9089997497573672	-0.30040489192721775	-0.24727129215711438	2.0677930670150197	-0.5700656951875873	-1.5778693978367047	1.8850147328062363	0.8940300590293104	-0.20972694444967846	1.9470782104487427	-0.6187983899833104
